<svg width="17" height="17" viewBox="0 0 17 17" fill="none" xmlns="http://www.w3.org/2000/svg">
<path id="Vector" d="M1.57408 0.703735C1.34324 0.703735 1.12186 0.795435 0.95863 0.958661C0.795404 1.12189 0.703705 1.34327 0.703705 1.57411C0.703705 5.49833 2.2626 9.26182 5.03744 12.0367C7.81228 14.8115 11.5758 16.3704 15.5 16.3704C15.7308 16.3704 15.9522 16.2787 16.1154 16.1155C16.2787 15.9523 16.3704 15.7309 16.3704 15.5V12.4537C16.3704 12.2229 16.2787 12.0015 16.1154 11.8383C15.9522 11.6751 15.7308 11.5834 15.5 11.5834C14.4207 11.5834 13.3676 11.4093 12.3928 11.0873C12.0882 10.9915 11.7487 11.0611 11.505 11.3048L9.59019 13.2197C7.12306 11.958 5.11614 9.95105 3.85445 7.48392L5.76926 5.5604C6.01296 5.3254 6.08259 4.98596 5.98685 4.68133C5.66482 3.70651 5.49074 2.65337 5.49074 1.57411C5.49074 1.34327 5.39904 1.12189 5.23582 0.958661C5.07259 0.795435 4.85121 0.703735 4.62037 0.703735M12.0185 0.703735V3.31485H9.40741V5.05559H12.0185V7.6667H13.7593V5.05559H16.3704V3.31485H13.7593V0.703735" fill="white"/>
</svg>
