<svg width="44" height="52" viewBox="0 0 44 52" fill="none" xmlns="http://www.w3.org/2000/svg">
<g id="Group 4">
<path id="Vector" d="M39.5 2H4.5C3.11929 2 2 3.07452 2 4.4V47.6C2 48.9255 3.11929 50 4.5 50H39.5C40.8807 50 42 48.9255 42 47.6V4.4C42 3.07452 40.8807 2 39.5 2Z" fill="white" fill-opacity="0.7" stroke="#3540AD" stroke-width="3"/>
<path id="Vector_2" d="M2 16.0157H41" stroke="#3540AD" stroke-width="2" stroke-linecap="round" stroke-linejoin="round"/>
<path id="Vector_3" d="M26.375 11.7498C27.7212 11.7498 28.8125 10.6585 28.8125 9.3123C28.8125 7.96611 27.7212 6.8748 26.375 6.8748C25.0288 6.8748 23.9375 7.96611 23.9375 9.3123C23.9375 10.6585 25.0288 11.7498 26.375 11.7498Z" fill="#3540AD"/>
<path id="Vector_4" d="M33.6875 11.7498C35.0337 11.7498 36.125 10.6585 36.125 9.3123C36.125 7.96611 35.0337 6.8748 33.6875 6.8748C32.3413 6.8748 31.25 7.96611 31.25 9.3123C31.25 10.6585 32.3413 11.7498 33.6875 11.7498Z" fill="#3540AD"/>
<path id="Vector_5" d="M21.4999 42.2188C26.2116 42.2188 30.0312 38.3993 30.0312 33.6876C30.0312 28.9759 26.2116 25.1563 21.4999 25.1563C16.7883 25.1563 12.9687 28.9759 12.9687 33.6876C12.9687 38.3993 16.7883 42.2188 21.4999 42.2188Z" stroke="#3540AD" stroke-width="3"/>
</g>
</svg>
