<svg width="40" height="48" viewBox="0 0 40 48" fill="none" xmlns="http://www.w3.org/2000/svg">
<path id="Vector" d="M36.8 22.4667L22.2222 15.4595V12.0038C22.2222 10.684 21.2222 9.60409 20 9.60409C18.7778 9.60409 17.7778 8.52421 17.7778 7.20435C17.7778 5.88449 18.7778 4.80461 20 4.80461C21.2222 4.80461 22.2222 5.88449 22.2222 7.20435H26.6667C26.6667 2.78882 22.9778 -0.714806 18.7556 0.125104C16.1333 0.653048 13.9778 2.93281 13.4667 5.7645C12.8 9.5081 14.8 12.8198 17.7778 13.9716V15.4835L3.2 22.4907C1.24444 23.4026 0 25.4904 0 27.7702V27.7942C0 31.0098 2.4 33.6015 5.37778 33.6015H8.88889V48H31.1111V33.6015H34.6222C37.6 33.6015 40 31.0098 40 27.7942V27.7702C40 25.4904 38.7556 23.4026 36.8 22.4667ZM34.6222 28.802H31.1111V26.4023H8.88889V28.802H5.37778C4.86667 28.802 4.44444 28.3461 4.44444 27.7702C4.44444 27.3622 4.66667 27.0022 5 26.8583L20 19.659L35 26.8583C35.1971 26.9522 35.3584 27.1164 35.4568 27.3234C35.5552 27.5305 35.5848 27.7677 35.5405 27.9955C35.4962 28.2232 35.3809 28.4276 35.2137 28.5744C35.0465 28.7213 34.8377 28.8016 34.6222 28.802Z" fill="white" fill-opacity="0.7"/>
</svg>
