<svg width="20" height="20" viewBox="0 0 20 20" fill="none" xmlns="http://www.w3.org/2000/svg">
<g id="&#240;&#159;&#166;&#134; icon &#34;copyright&#34;">
<path id="Vector" d="M8.39984 9.05008C8.4415 8.77508 8.53317 8.53341 8.64984 8.32508C8.7665 8.11675 8.93317 7.94175 9.1415 7.80841C9.3415 7.68341 9.5915 7.62508 9.89984 7.61675C10.0915 7.62508 10.2665 7.65842 10.4248 7.72508C10.5915 7.80008 10.7415 7.90008 10.8582 8.02508C10.9748 8.15008 11.0665 8.30008 11.1415 8.46675C11.2165 8.63341 11.2498 8.81675 11.2582 9.00008H12.7498C12.7332 8.60841 12.6582 8.25008 12.5165 7.92508C12.3748 7.60008 12.1832 7.31675 11.9332 7.08342C11.6832 6.85008 11.3832 6.66675 11.0332 6.53341C10.6832 6.40008 10.2998 6.34175 9.87484 6.34175C9.33317 6.34175 8.85817 6.43341 8.45817 6.62508C8.05817 6.81675 7.72484 7.06675 7.45817 7.39175C7.1915 7.71675 6.9915 8.09175 6.8665 8.52508C6.7415 8.95841 6.6665 9.40841 6.6665 9.89175V10.1167C6.6665 10.6001 6.73317 11.0501 6.85817 11.4834C6.98317 11.9167 7.18317 12.2917 7.44984 12.6084C7.7165 12.9251 8.04984 13.1834 8.44984 13.3667C8.84984 13.5501 9.32484 13.6501 9.8665 13.6501C10.2582 13.6501 10.6248 13.5834 10.9665 13.4584C11.3082 13.3334 11.6082 13.1584 11.8665 12.9334C12.1248 12.7084 12.3332 12.4501 12.4832 12.1501C12.6332 11.8501 12.7248 11.5334 12.7332 11.1917H11.2415C11.2332 11.3667 11.1915 11.5251 11.1165 11.6751C11.0415 11.8251 10.9415 11.9501 10.8165 12.0584C10.6915 12.1667 10.5498 12.2501 10.3832 12.3084C10.2248 12.3667 10.0582 12.3834 9.88317 12.3917C9.58317 12.3834 9.33317 12.3251 9.1415 12.2001C8.93317 12.0667 8.7665 11.8917 8.64984 11.6834C8.53317 11.4751 8.4415 11.2251 8.39984 10.9501C8.35817 10.6751 8.33317 10.3917 8.33317 10.1167V9.89175C8.33317 9.60008 8.35817 9.32508 8.39984 9.05008ZM9.99984 1.66675C5.39984 1.66675 1.6665 5.40008 1.6665 10.0001C1.6665 14.6001 5.39984 18.3334 9.99984 18.3334C14.5998 18.3334 18.3332 14.6001 18.3332 10.0001C18.3332 5.40008 14.5998 1.66675 9.99984 1.66675ZM9.99984 16.6667C6.32484 16.6667 3.33317 13.6751 3.33317 10.0001C3.33317 6.32508 6.32484 3.33341 9.99984 3.33341C13.6748 3.33341 16.6665 6.32508 16.6665 10.0001C16.6665 13.6751 13.6748 16.6667 9.99984 16.6667Z" fill="white" fill-opacity="0.4"/>
</g>
</svg>
