<svg width="20" height="20" viewBox="0 0 20 20" fill="none" xmlns="http://www.w3.org/2000/svg">
<g id="&#240;&#159;&#166;&#134; icon &#34;linkedin&#34;">
<path id="Vector" d="M17.0375 17.0438H14.0794V12.4021C14.0794 11.2953 14.0562 9.87282 12.5325 9.87282C10.99 9.87282 10.755 11.0734 10.755 12.3202V17.0432H7.79312V7.49914H10.6381V8.80098H10.6763C11.0738 8.04912 12.0406 7.25852 13.4831 7.25852C16.4837 7.25852 17.0406 9.23409 17.0406 11.8028V17.0432L17.0375 17.0438ZM4.44688 6.19481C3.4925 6.19481 2.7275 5.42296 2.7275 4.47236C2.7275 3.52489 3.49563 2.75429 4.44688 2.75429C5.39812 2.75429 6.16875 3.52489 6.16875 4.47236C6.16875 5.42296 5.39812 6.19481 4.44688 6.19481ZM5.93062 17.0438H2.9625V7.49977H5.93062V17.0438ZM18.5225 0H1.475C0.660625 0 0 0.644355 0 1.44183V18.5582C0 19.3556 0.660625 20 1.475 20H18.5194C19.3325 20 20 19.3556 20 18.5582V1.44183C20 0.644355 19.3325 0 18.5194 0L18.5225 0Z" fill="white"/>
</g>
</svg>
